<svg version="1.1" id="Layer_1" xmlns="http://www.w3.org/2000/svg" xmlns:xlink="http://www.w3.org/1999/xlink" x="0px" y="0px"
	 width="100%" viewBox="0 0 800 800" enable-background="new 0 0 800 800" xml:space="preserve">
<path fill="#000000" opacity="1.000000" stroke="none" 
	d="
M96.373611,408.041016 
	C122.825691,408.039429 148.823624,407.833435 174.815750,408.132843 
	C189.103928,408.297394 203.434113,408.702881 217.178665,413.655548 
	C232.439850,419.154694 243.660248,428.731995 249.230011,444.283264 
	C249.738785,445.703857 250.101547,447.147736 251.714691,447.843811 
	C253.826401,447.256531 254.701828,445.320770 255.945160,443.824463 
	C274.227966,421.821350 297.855225,409.405853 325.821960,404.645599 
	C346.309692,401.158325 366.571320,401.714081 386.569092,407.657867 
	C406.433777,413.562134 422.625824,424.540680 433.987976,442.153931 
	C434.795624,443.405884 435.698883,444.603760 436.648346,445.751801 
	C436.923096,446.084076 437.514038,446.154816 437.842255,446.295105 
	C439.374359,446.089996 439.876221,444.939697 440.366943,443.928284 
	C449.355042,425.404022 464.903625,414.789154 483.891052,409.025452 
	C512.691223,400.283051 541.651184,400.616943 570.335876,409.817566 
	C583.093506,413.909607 593.850525,421.455780 603.355652,430.832581 
	C604.605713,432.065765 605.569336,433.803223 608.337646,433.973938 
	C610.098572,427.208679 612.082886,420.399323 613.588562,413.485748 
	C614.447693,409.540863 616.302490,407.969666 620.375000,407.976105 
	C672.532532,408.058441 724.690247,408.025787 776.847900,408.038239 
	C778.485413,408.038635 780.201477,407.857178 781.879333,409.310303 
	C781.766541,413.947052 779.988647,418.453979 778.913330,423.070770 
	C776.878418,431.807465 774.394043,440.441284 772.447571,449.195923 
	C771.592712,453.040771 769.730652,454.319244 765.906067,454.269806 
	C752.910522,454.101715 739.908203,454.365601 726.915466,454.110046 
	C722.749695,454.028107 721.116943,455.506348 720.226562,459.471527 
	C709.338196,507.957367 698.292419,556.407776 687.311279,604.872803 
	C685.642029,612.239929 685.697998,612.258423 678.293396,612.255432 
	C661.296326,612.248596 644.299255,612.244019 627.302185,612.220581 
	C620.807068,612.211609 620.652832,611.956238 622.068054,605.787292 
	C633.062683,557.861755 644.044189,509.933136 655.016602,462.002472 
	C656.565918,455.234650 655.837219,454.266846 649.059692,454.245972 
	C635.395508,454.203888 621.730652,454.285950 608.067200,454.176453 
	C604.914001,454.151215 602.275940,454.984772 599.692627,456.765045 
	C590.504211,463.097076 581.227600,469.301453 571.963989,475.523865 
	C570.604065,476.437317 569.404297,477.699768 567.532166,477.854889 
	C565.482361,476.550079 564.786133,474.201904 563.625732,472.246582 
	C551.168274,451.256500 525.412659,448.213318 508.258911,453.599823 
	C503.567596,455.072968 500.009644,458.269379 499.496765,463.510742 
	C498.988129,468.708038 502.222565,471.805420 506.462097,474.040955 
	C516.862488,479.524963 528.373047,481.865112 539.395386,485.577332 
	C549.807861,489.084137 560.201599,492.544708 570.125366,497.365997 
	C598.589417,511.194397 606.322205,536.107483 598.742493,564.175110 
	C593.588135,583.261475 580.661011,596.096130 563.466797,604.810486 
	C539.809937,616.800171 514.445129,618.754211 488.520416,616.665649 
	C468.666840,615.066101 449.904327,609.954956 432.952332,599.078430 
	C425.476685,594.281982 419.174408,588.141235 412.700439,581.524597 
	C409.139648,584.647949 405.816650,587.581421 402.473663,590.491882 
	C383.915497,606.649048 361.872498,613.946655 337.766937,616.421204 
	C321.355347,618.106018 305.195465,617.183716 289.197815,613.352905 
	C255.003891,605.164734 232.365265,580.005188 227.451065,545.441101 
	C226.736191,540.412964 227.626892,535.069336 225.326080,530.483337 
	C223.815506,529.605957 222.791916,530.242676 221.825607,530.886902 
	C205.210403,541.964233 186.361115,544.676025 167.035309,545.227234 
	C155.046875,545.569153 143.035126,545.535339 131.046432,545.208191 
	C126.307861,545.078857 124.272339,546.577576 123.280815,551.241821 
	C119.479568,569.123535 115.296791,586.923950 111.290756,604.762390 
	C109.617950,612.211182 109.657028,612.229614 101.798790,612.230835 
	C84.968361,612.233459 68.137856,612.250549 51.307529,612.207153 
	C45.520065,612.192200 45.278214,611.849182 46.581108,606.132080 
	C59.390682,549.923584 72.214188,493.718201 85.035187,437.512268 
	C86.919174,429.253082 88.901390,421.014740 90.651466,412.727325 
	C91.295006,409.679871 92.581169,407.834442 96.373611,408.041016 
M311.164856,468.651947 
	C295.850952,489.060394 289.963623,512.238770 292.598724,537.284546 
	C294.101929,551.572083 301.365875,563.026428 316.063110,567.264832 
	C333.074432,572.170532 347.927643,566.989258 359.463776,554.188477 
	C377.975647,533.647095 383.802399,508.899048 380.467285,481.891571 
	C379.338287,472.748718 375.292145,464.698639 367.409851,459.170319 
	C349.788971,446.811737 326.403992,450.565826 311.164856,468.651947 
M526.745850,542.730591 
	C520.043518,538.148315 512.269897,536.125549 504.733521,533.548401 
	C489.188049,528.232544 473.062897,524.340210 459.031494,515.287354 
	C454.909760,512.627991 451.076691,509.521362 446.147491,505.914398 
	C443.755554,520.094055 440.276398,533.153320 436.468597,546.318298 
	C443.636230,544.168396 448.411621,538.759583 454.800934,535.963379 
	C455.380920,536.708374 455.915070,537.158142 456.150085,537.730652 
	C463.388000,555.364075 477.307404,564.504333 495.300323,568.210999 
	C504.689362,570.145264 514.169739,570.579041 523.088806,566.135498 
	C532.844788,561.275024 534.730408,550.531311 526.745850,542.730591 
M180.822632,492.303741 
	C181.833344,490.784180 182.972626,489.333862 183.834656,487.734161 
	C191.531540,473.450623 185.527496,457.751282 170.897766,453.620300 
	C163.546890,451.544617 156.058807,452.351990 148.607086,452.275208 
	C146.324509,452.251709 145.416946,453.712646 144.968430,455.655548 
	C141.798462,469.388062 138.597931,483.113708 135.488007,496.859802 
	C134.714127,500.280518 136.292709,501.754608 139.795303,501.670532 
	C145.277725,501.538940 150.787094,501.940063 156.246094,501.558411 
	C165.046906,500.943054 173.951401,500.245728 180.822632,492.303741 
z"/>
<path fill="#000000" opacity="1.000000" stroke="none" 
	d="
M169.531036,306.140350 
	C166.091660,292.203247 168.211609,278.907074 171.699051,265.830414 
	C177.932297,242.458069 188.775513,221.467056 205.299957,203.598862 
	C210.468460,198.010071 216.471786,193.538864 223.684814,191.047928 
	C231.643997,188.299332 238.806732,189.396011 244.275009,196.513382 
	C244.754074,197.136948 245.468628,197.579605 246.054077,198.089111 
	C250.948883,193.560608 260.474274,190.664413 270.535217,190.550903 
	C271.876038,192.260727 270.952515,193.979370 270.550293,195.730743 
	C258.346863,248.866867 246.171005,302.009338 233.938339,355.138733 
	C233.254410,358.109222 233.132660,361.080811 233.204971,364.066803 
	C233.346588,369.913177 235.843765,372.588104 241.860397,373.740936 
	C243.696564,374.092804 246.262161,373.748138 245.825745,376.893707 
	C245.509125,379.175842 244.188248,380.321350 241.732895,380.311707 
	C223.571854,380.240448 205.410553,380.237152 187.249405,380.188538 
	C186.782425,380.187286 186.316162,379.912445 185.618027,379.692139 
	C184.655655,375.902588 186.203354,374.025879 190.023727,373.999664 
	C201.168533,373.923126 207.688217,367.956512 210.465088,357.641022 
	C216.169739,336.449432 220.740341,314.984131 225.555344,293.579407 
	C225.684708,293.004333 225.571671,292.374756 225.571671,290.811554 
	C220.495377,298.101410 216.576721,305.061279 211.364471,311.102478 
	C207.853912,315.171387 204.040405,318.854248 199.314148,321.479736 
	C188.392410,327.546906 177.515442,324.240143 171.991180,313.095673 
	C170.966446,311.028381 170.396973,308.735443 169.531036,306.140350 
M194.685043,302.626434 
	C198.916931,307.390045 201.960480,307.796814 207.141754,303.903717 
	C213.675201,298.994629 218.071396,292.336853 221.828033,285.210663 
	C229.794357,270.098816 235.042450,254.004044 238.760330,237.405777 
	C240.928070,227.728073 243.763184,218.062912 241.828735,207.927780 
	C240.994400,203.556427 239.875168,199.139603 235.083496,197.690231 
	C230.410889,196.276901 226.679840,198.896576 223.510086,202.013168 
	C218.694077,206.748413 215.517120,212.620239 212.608246,218.631882 
	C204.081467,236.253738 198.277832,254.806351 194.603241,273.968414 
	C192.838196,283.172607 190.417816,292.597015 194.685043,302.626434 
z"/>
<path fill="#000000" opacity="1.000000" stroke="none" 
	d="
M611.419800,217.422531 
	C603.782104,224.648361 596.424988,231.656616 588.996826,238.588776 
	C586.868652,240.574844 585.912170,242.483170 586.915527,245.595734 
	C592.681152,263.482300 598.224487,281.440430 603.864319,299.367645 
	C604.313110,300.794006 604.823120,302.217834 605.473877,303.560883 
	C607.674988,308.104004 610.519409,308.899902 614.711609,306.093109 
	C618.646667,303.458496 621.538086,299.773773 624.368103,296.060150 
	C625.780334,294.206940 627.053955,292.248627 628.443115,290.377075 
	C629.476135,288.985321 630.723694,288.569366 632.316833,289.620331 
	C634.035706,290.754242 633.747192,292.044189 632.763794,293.431030 
	C626.307312,302.536163 619.922913,311.715118 611.491577,319.169098 
	C609.771057,320.690155 607.681030,321.885345 605.595520,322.884827 
	C598.304382,326.378937 592.122498,324.541809 588.122742,317.541870 
	C584.129578,310.553497 582.084473,302.773804 579.680176,295.164459 
	C576.522766,285.171478 573.568909,275.114166 570.415649,265.119812 
	C569.837708,263.288086 569.724854,261.140778 567.507507,259.497314 
	C562.554626,263.390045 557.337280,266.653320 555.888916,273.949585 
	C553.108093,287.958618 549.455261,301.792389 546.426514,315.755798 
	C545.585571,319.632782 544.140381,321.630798 539.854248,321.272217 
	C535.883728,320.940033 531.849915,320.989502 527.869080,321.252014 
	C523.100037,321.566467 523.141235,318.927643 523.920776,315.582001 
	C527.653320,299.562042 531.431519,283.552521 535.106934,267.519470 
	C544.759094,225.414108 554.406982,183.307663 563.960266,141.179825 
	C566.108948,131.704742 562.761047,127.913124 553.287781,128.542999 
	C552.297607,128.608841 551.302673,128.918869 550.238586,127.888809 
	C550.273621,125.495850 550.409790,123.262878 553.764832,122.592964 
	C564.686035,120.412285 575.568115,118.036186 586.485291,115.834587 
	C588.062561,115.516518 589.809937,115.362663 591.986816,117.098083 
	C581.530334,162.618011 570.990173,208.502579 560.449951,254.387146 
	C560.733215,254.567169 561.016541,254.747208 561.299805,254.927231 
	C563.095337,253.307816 564.922607,251.722153 566.681213,250.063599 
	C579.768250,237.721390 592.937927,225.464050 605.846741,212.938004 
	C608.810364,210.062286 613.672546,207.010361 612.137329,202.410507 
	C610.688171,198.068298 605.156250,199.920547 601.200439,198.930954 
	C600.343201,196.042862 600.434021,193.336533 604.206482,193.275742 
	C615.359253,193.096008 626.517639,193.255447 637.673584,193.329330 
	C638.284790,193.333359 638.893066,193.765350 639.731323,194.085434 
	C639.879700,196.313705 640.103027,198.966797 637.290588,199.168045 
	C629.366150,199.735077 624.517029,205.123169 619.233093,209.896881 
	C616.638672,212.240753 614.188660,214.744598 611.419800,217.422531 
z"/>
<path fill="#000000" opacity="1.000000" stroke="none" 
	d="
M334.922424,269.967621 
	C348.453827,248.290771 355.406464,224.592789 360.750854,200.249893 
	C363.465698,187.884262 361.169647,189.758057 374.147095,189.741272 
	C385.808563,189.726181 385.768646,187.687714 382.811096,200.624344 
	C375.439972,232.866135 368.019531,265.096741 360.737640,297.358612 
	C360.073456,300.301147 358.547028,304.483124 361.700470,306.090240 
	C365.416168,307.983826 367.399445,303.721527 369.380402,301.278748 
	C371.889557,298.184662 373.970673,294.741394 376.206207,291.428345 
	C377.243317,289.891327 378.431274,289.661957 380.015717,290.643188 
	C381.654449,291.657990 381.852875,292.956787 380.882629,294.436951 
	C374.678741,303.901367 368.842712,313.679749 359.496307,320.565521 
	C354.310425,324.386047 348.605225,326.046814 342.701965,322.714417 
	C337.227020,319.623871 336.384430,314.054138 336.697052,308.333466 
	C337.309509,297.126892 341.079346,286.536804 343.246704,275.632202 
	C343.955414,272.066589 344.763428,268.520721 345.813690,263.624725 
	C339.303162,273.723022 333.594238,282.746460 327.710754,291.654633 
	C322.184174,300.022491 315.782043,307.681183 308.393341,314.492249 
	C303.930725,318.605957 299.020447,321.941742 293.101074,323.623688 
	C282.179810,326.726807 274.224091,320.893768 273.629211,309.562775 
	C273.069611,298.903839 275.854126,288.781403 278.203979,278.587616 
	C283.094391,257.372711 288.084198,236.180695 293.048035,214.982773 
	C293.616699,212.554291 294.283295,210.147797 292.296478,207.281540 
	C285.484833,209.799194 283.988373,217.202774 279.438904,221.658524 
	C275.831238,220.509583 274.570740,218.786835 276.723755,215.354385 
	C281.077850,208.412857 285.756866,201.743286 291.908539,196.254745 
	C293.515045,194.821457 295.268707,193.488373 297.133606,192.422012 
	C302.021606,189.627060 307.171722,188.335220 312.146545,191.989227 
	C317.017944,195.567261 317.777679,200.900528 316.807373,206.372299 
	C313.614014,224.380371 308.819366,242.038574 304.828308,259.873566 
	C302.178894,271.713257 299.492798,283.544739 296.862793,295.388733 
	C296.577393,296.674164 296.349457,298.033875 296.448059,299.332336 
	C296.869110,304.875885 300.017517,306.697052 304.929382,304.065979 
	C310.746460,300.950012 315.220703,296.180817 319.535278,291.311066 
	C325.294769,284.810516 330.285156,277.736145 334.922424,269.967621 
z"/>
<path fill="#000000" opacity="1.000000" stroke="none" 
	d="
M503.073242,197.372650 
	C496.392883,198.129349 491.466583,201.299774 487.301056,205.893539 
	C475.599609,218.798019 469.949493,234.547928 466.464325,251.166199 
	C463.507660,265.264435 462.844391,279.566132 465.430420,293.816223 
	C466.776184,301.231934 469.597290,308.455292 477.282166,311.158112 
	C485.405548,314.015167 492.098145,309.817566 498.064728,304.477997 
	C502.566376,300.449463 506.336365,295.807465 509.843964,290.927765 
	C510.914734,289.438080 512.021362,288.430267 513.953796,289.775055 
	C515.691284,290.984192 515.886169,292.362518 514.782104,294.030609 
	C506.345978,306.776550 496.289490,317.814941 481.330688,322.789215 
	C462.768127,328.961853 444.708313,317.820709 440.824951,297.402069 
	C436.835968,276.428192 440.830048,256.335510 450.133453,237.320206 
	C457.633820,221.990128 467.848785,208.708542 481.829010,198.681763 
	C490.549316,192.427460 499.950897,188.002808 511.179291,190.640167 
	C518.765381,192.421982 524.120178,197.027756 526.286987,204.422089 
	C528.615234,212.367584 528.391846,220.336182 522.595520,227.061508 
	C518.208008,232.152130 509.746887,232.973251 505.517578,228.992569 
	C500.604736,224.368546 501.094696,217.228271 506.699493,211.801697 
	C507.058502,211.454086 507.401062,211.077377 507.805542,210.790848 
	C510.769196,208.691360 512.751587,205.938553 511.412292,202.291855 
	C510.150848,198.857132 507.137848,197.369370 503.073242,197.372650 
z"/>
<path fill="#000000" opacity="1.000000" stroke="none" 
	d="
M407.541260,206.651688 
	C405.484589,203.715424 402.814392,203.211121 399.845245,203.204224 
	C397.405212,203.198578 394.868134,203.918152 392.508545,202.578522 
	C392.011230,199.653351 393.304108,198.266464 396.081787,197.659988 
	C407.605865,195.143860 419.090363,192.445358 430.621979,189.965424 
	C435.559021,188.903687 436.757141,190.170807 435.640045,195.075287 
	C427.819885,229.408463 419.941895,263.728485 412.111389,298.059296 
	C411.392487,301.211121 409.526367,305.229431 413.034058,307.134552 
	C416.217529,308.863617 418.782227,305.362701 420.930054,303.193848 
	C424.436401,299.653259 427.666107,295.833496 430.928314,292.058777 
	C432.263824,290.513397 433.518829,289.467590 435.541107,290.939453 
	C437.772461,292.563507 436.613159,293.995911 435.416107,295.524567 
	C428.115112,304.848022 420.568726,313.935669 410.681244,320.705414 
	C407.916412,322.598480 404.902985,324.006897 401.477203,324.277893 
	C393.984650,324.870575 389.325043,321.211029 388.556854,313.705048 
	C387.500610,303.384155 390.950470,293.663666 393.094635,283.808929 
	C397.965393,261.422760 403.106659,239.095505 408.116180,216.739426 
	C408.848419,213.471695 409.299652,210.183548 407.541260,206.651688 
z"/>
<path fill="#000000" opacity="1.000000" stroke="none" 
	d="
M440.888733,161.224197 
	C433.988739,163.607239 428.063660,162.881393 423.302795,157.466370 
	C419.290314,152.902496 418.682251,146.719727 421.480164,141.176804 
	C424.199585,135.789429 429.504944,132.581741 435.224701,133.052185 
	C441.392456,133.559464 445.859161,136.626022 448.163086,142.432724 
	C450.546417,148.439621 449.361694,153.851944 444.852386,158.453766 
	C443.824982,159.502213 442.454956,160.214920 440.888733,161.224197 
z"/>
</svg>